<?xml version="1.0" encoding="utf-8"?>
<svg version="1.1" xmlns:xlink="http://www.w3.org/1999/xlink" width="20px" height="10px" xmlns="http://www.w3.org/2000/svg">
  <g transform="matrix(1 0 0 1 -1862 -455 )">
    <path d="M 19.7879464285714 4.296875  C 19.9293154761905 4.49479166666667  20 4.72916666666667  20 5  C 20 5.27083333333333  19.9293154761905 5.50520833333333  19.7879464285714 5.703125  L 16.9308035714286 9.703125  C 16.7894345238095 9.90104166666666  16.6220238095238 10  16.4285714285714 10  C 16.235119047619 10  16.0677083333333 9.90104166666666  15.9263392857143 9.703125  C 15.7849702380952 9.50520833333333  15.7142857142857 9.27083333333333  15.7142857142857 9  L 15.7142857142857 7  L 4.28571428571429 7  L 4.28571428571429 9  C 4.28571428571429 9.27083333333333  4.21502976190476 9.50520833333333  4.07366071428571 9.703125  C 3.93229166666667 9.90104166666666  3.76488095238095 10  3.57142857142857 10  C 3.37797619047619 10  3.21056547619048 9.90104166666666  3.06919642857143 9.703125  L 0.212053571428571 5.703125  C 0.0706845238095238 5.50520833333333  0 5.27083333333333  0 5  C 0 4.72916666666667  0.0706845238095238 4.49479166666667  0.212053571428571 4.296875  L 3.06919642857143 0.296875  C 3.21056547619048 0.0989583333333321  3.37797619047619 0  3.57142857142857 0  C 3.76488095238095 0  3.93229166666667 0.0989583333333321  4.07366071428571 0.296875  C 4.21502976190476 0.494791666666666  4.28571428571429 0.729166666666666  4.28571428571429 1  L 4.28571428571429 3  L 15.7142857142857 3  L 15.7142857142857 1  C 15.7142857142857 0.729166666666666  15.7849702380952 0.494791666666666  15.9263392857143 0.296875  C 16.0677083333333 0.0989583333333321  16.235119047619 0  16.4285714285714 0  C 16.6220238095238 0  16.7894345238095 0.0989583333333321  16.9308035714286 0.296875  L 19.7879464285714 4.296875  Z " fill-rule="nonzero" fill="#555555" stroke="none" transform="matrix(1 0 0 1 1862 455 )" />
  </g>
</svg>