<svg id="图层_1" data-name="图层 1" xmlns="http://www.w3.org/2000/svg" viewBox="0 0 217.58 218.54"><defs><style>.cls-1{fill:#de0024;}</style></defs><title>未标题-1</title><path class="cls-1" d="M243.08,99.07c1.38,2.37,3.55,2.84,5.47,1.14.54-.48.83-.82,1.67-.26a32.6,32.6,0,0,0,4.29,2.07c.2.09.56.24.59.19,1.4-2.16,3.07-.8,4.7-.43.48.11,1.34.06,1.49-.22,1.64-2.88,4.09-1.29,6.24-1.21a18.23,18.23,0,0,0,5.11-.16c3.28-.82,6.59.63,9.88-.15a1.29,1.29,0,0,1,1.65,1.09c.07,2.09,1.3,1.06,1.92.63,2.51-1.75,5.25-1.85,8.08-1.3a2.37,2.37,0,0,1,1.54,4c-.33.46-.65.75-1,.55-2-1-4.28-.45-6.23-1.45-1.29-.67-2.77.48-3.09.84-1.73,2-3.53.57-5.2.4a3.64,3.64,0,0,0-2.31.24,9.3,9.3,0,0,1-7.24.56,3.57,3.57,0,0,0-2,0c-2.3.74-4.68-.12-7,.43a2.89,2.89,0,0,0-1.57.74c-1.22,1.68-2.16,1.64-3.43,0-.85-1.13-2.53-1-3.75-1.07a79.84,79.84,0,0,0-10-.37c-3.06.17-6.23.06-9.33.31-2,.17-3.93.93-5.78-.46a1.36,1.36,0,0,0-1.12,0c-3.4,1.35-6.93.06-10.37.55-1.25.18-2.29-.73-3.61-.63-1.63.12-3.29-.33-4.93-.35-1.26,0-1.7-.87-1.54-1.69s1-1.22,2.09-1c2.05.5,4.14.14,6.21,0a3.48,3.48,0,0,1,1.54,0c1.53.56,2.87.77,2.91-1.55,0-.52,1.16-.5.87-1.33h.91c1.61.62,3.31,1,4.92,1.62,2.55,1,4.5-.42,6.5-1.62h1.37c2,.43,4,2.34,5.94,0Z" transform="translate(-95.96 -99.07)"/><path class="cls-1" d="M306.59,223.13a14.25,14.25,0,0,1,2.54-9.53c.62-.87.27-2-.68-2.81-1.86-1.64-2.11-3.33-1.3-5.95a30.74,30.74,0,0,1,2.34-6.07,1.55,1.55,0,0,0-.79-2.24c-2.43-.88-1.51-2.83-1.65-4.44-.1-1.05.36-2,.18-3.2a2.86,2.86,0,0,1,1.49-3c1.83-.83,1.34-2,.14-2.93a2.6,2.6,0,0,1-1-2.91c.45-3.32-.22-6.62-.33-9.94-.08-2.37-.78-5,2.7-6.06.91-.27.71-1.61-.32-2.38-2.73-2-2.74-2.31-.09-4.12.63-.42.45-.94.37-1.37-.16-.77-.65-.32-1-.12a.72.72,0,0,1-1.06-.48c.18-3.1-1.87-6.07-.6-9.23.46-1.14,1.5-1.89,1.53-3.43a4.74,4.74,0,0,0-.55-2.54c-.62-1.22.14-2.72,0-4.14s0-2.88-.72-4.15.23-2.33.2-3.49c-.14-4.23-.2-8.46-.53-12.67a9.42,9.42,0,0,1,0-3.09c.26-1.15.43-2.5-.84-3.53-2.23-1.79.25-2.78,1.05-3.48,1.08-.95,1.35.73,1.62,1.33.74,1.65,2.56,2.67,2.51,4.85a12.75,12.75,0,0,1-.27,2.17,28.14,28.14,0,0,0-.15,5.81c.08,2.82.71,5.63-.44,8.41a2.55,2.55,0,0,0,.49,3.13c.41.35.82.75.67,1.35-.58,2.21,0,4.47-.32,6.74-.25,1.59-1.37,3.4.41,5.33.82.89.22,3.46-.29,5.08a3.78,3.78,0,0,0,.3,3.4c2.28,2.67,1.06,5.32.41,8a30.69,30.69,0,0,0-.37,7.1c0,2.66,1.18,5.56-.73,8-.54.7,0,1.12.14,1.62a13,13,0,0,1,.49,8.33c-.38,1.27.52,2.54.38,3.77-.52,4.76.25,9.55-.38,14.31a3.55,3.55,0,0,1-.83,1.53c-.72,1.1-.63,1.94.09,3.3,1.39,2.6,2.64,5.4,1.38,8.7-.48,1.26-1.36,2.93.05,4.64a2.28,2.28,0,0,1-1,3.39,1.91,1.91,0,0,0-1.23,1.39c-.18.8-.88,1.49-2.27,1.08s-1.92-.71-1.75-2.13A30.24,30.24,0,0,0,306.59,223.13Z" transform="translate(-95.96 -99.07)"/><path class="cls-1" d="M176.85,214.55c-.16,5.83-.23,11.67-.55,17.49-.07,1.23-.36,2.5-.39,3.77s-.85,1.25-1.76,1.24c-5.72-.07-11.44.07-17.14-.54-1.44-.15-3.83-3.58-3.45-5a1.25,1.25,0,0,1,1.83-.82c1.69.85,3.56,0,5.28.79a1.93,1.93,0,0,0,2.28-1.05c.4-.82.79-2.07.43-2.72s-1.65-.61-2.67-.42c-1.88.35-3.61-.71-5.45-.85-.14,0-.33-.47-.34-.72-.06-2-.57-4.17-.32-6,.45-3.28.06-6.51.24-9.75.09-1.59.5-3.11.52-4.68a1.1,1.1,0,0,1,.71-1.05c.67-.26.54.6.86.77,3.5,1.8,2.88,4.8,2.81,8,0,1.67-.83,3.63.38,5.28.44.59.18,1.08-.08,1.67-.55,1.26.3,1.8,1.34,2s1.89-.18,1.73-1.43c-.55-4.33.42-8.49,1.37-12.66.18-.81-.95-1.47-.21-2.33.91-1,2-.42,3.08-.43a1.51,1.51,0,0,1,1.65,1.51c-.43,3.59,2,7,.9,10.47-1,3-.61,6.18-1.6,9.13-.57,1.7.31,3.25.37,4.88,0,.61,3.51,1,3.92.35.78-1.16,1.87-2.2.93-3.93a9.73,9.73,0,0,1-.84-4.1c-.19-3.42.14-6.89-.81-10.28a4.79,4.79,0,0,1,.58-3.92c.45-.69.68-1.64,1.77-1.37.91.23,1.79.42,2.2,1.59C177,211.12,176.71,212.84,176.85,214.55Z" transform="translate(-95.96 -99.07)"/><path class="cls-1" d="M186.42,211.39a4.5,4.5,0,0,1-.6,3.12c-.86,1.14,0,2.22.21,3.22.72,3.34-.2,6.45-.94,9.62-.53,2.27.77,3.74,2.89,3.28,1.67-.37,1.57-1.91,1.59-3,0-2.28-.24-4.58-.36-6.87,0-.45-.12-1.13.12-1.3,2.27-1.68.73-3.75.5-5.57a5.3,5.3,0,0,1,.31-3.44,3.31,3.31,0,0,0,.41-1.5c0-.81-1.48-1.64-.33-2.25a4.12,4.12,0,0,1,3.33-.33,3,3,0,0,1,1.09,3c-.74,3.09.12,6.28-.73,9.4-.26.93.74,2.31.92,3.57.08.56.76.64,1.33.61a1.18,1.18,0,0,0,1.23-1.07,26.5,26.5,0,0,0,.16-11.35c-.68-3.11.62-5.12,3.29-5,.92.05,1,.47,1.25,1.16,1.06,2.77.53,5.57.4,8.38s-.15,5.78,0,8.67a2.91,2.91,0,0,1-2.69,3.33c-1.86.31-3.92.64-4.77,2.62s.3,3.16,2.53,3c1.79-.09,3.64-.41,5.45.63,1.15.66,1,1.81,1.68,2.6.25.3-.18.57-.61.68-1.79.46-3.7.19-5.42.65-2.79.74-5.58-1.37-8.31.22-.33.2-1.14.17-1.3-.06-1.43-2-3.08-.68-4.55-.29-2.66.7-3.54,0-3.55-2.71,0-2.25-.56-4.52-.35-6.73s-.65-4.84-.26-6.67c.84-3.87.23-7.65.63-11.44.19-1.72,1.74-2.23,2.86-2.39s2.28.91,2.6,2.26A9.72,9.72,0,0,1,186.42,211.39Z" transform="translate(-95.96 -99.07)"/><path class="cls-1" d="M173.8,247.39c-1.33-1.32-3.53.39-5.14-.93-.24-.21-.51-.4-.79-.15-2.63,2.28-5.4-.08-8.11.16-1.6.13-2.83-2.2-2.56-3.86.12-.76,3.29-2.1,4.42-1.76,3.46,1,6.93.41,10.42.44,2.3,0,4.67.43,7,.29,4.1-.24,8.19,1,12.28.06,2.73,2,5.66.2,8.48.42s3.58,1.05,2.65,3.36c-.2.5-.33.71-.86.78-1.66.25-3.16,1.09-5,.14-1.17-.61-2.64.61-4.16.37a24,24,0,0,0-5.28.22C182.82,247.24,178.4,246.57,173.8,247.39Z" transform="translate(-95.96 -99.07)"/><path class="cls-1" d="M112,206.33c0-3,.05-2.57,3.4-2.83,3.1-.24,6.08.59,9.14.23,1.67-.19,3.5-.41,4.85,1.12.05.06.15.13.19.11,2-.85,4.25.2,6-.26a6,6,0,0,1,5.35.8,1.44,1.44,0,0,0,2.13-.17c1.47-1.24,6-.47,7.1,1.12a2.21,2.21,0,0,1,.13,2c-.43,1.19-2,1.11-2.5.93-1.54-.52-3.2.39-4.62-.59a.7.7,0,0,0-.66,0c-2.72,2.2-6.11,1.41-8.89,1.09-3.82-.45-7.55.89-11.34-.16-2.06-.56-4.27.55-6.49.42C112.78,210,111.94,209.24,112,206.33Z" transform="translate(-95.96 -99.07)"/><path class="cls-1" d="M96,132.88a1.76,1.76,0,0,0,1.26-1.69c-.35-3.22,1-6.32.26-9.63-.48-2,.24-4.32.32-6.5.12-3,1.11-6,1.32-9a2.74,2.74,0,0,1,1.43-2.17,15.72,15.72,0,0,1,11.94-2.26,4.54,4.54,0,0,0,2.89,0c4.45-2.41,9.21-.86,13.82-1.16,3.29-.2,6.57.55,9.91.45,3.62-.11,7.3-1.2,10.89.36a2.36,2.36,0,0,0,1.79,0c3-1.5,6.25-.53,9.34-1,1.48-.21,2.32.86,3.18,1.62,1.89,1.68,2.31,1.75,3.24-.27.65-1.4,1.5-2,2.89-1,.85.59,2,.56,2.78,1.34.63.61,1.21.28,1.49-.56.45-1.36,1.45-1.07,2.6-1.07a13,13,0,0,1,7.53,2.66c.58.41,1.16.17,1.13-.75-.07-2.27,1.91-2.23,3.08-2.08,2.65.34,5.17.91,7.93.35,1.81-.37,3.05,1.83,5.2,2.07a7.53,7.53,0,0,1-.67.52,10.39,10.39,0,0,1-8.42.32,2.16,2.16,0,0,0-2.43.37,6.45,6.45,0,0,1-5.17,1.56c-3.05-.15-6.07.56-9.13.12-1.05-.15-3.54,2.51-3.64,3.65a2.1,2.1,0,0,1-.38,1.47c-1.24,1.42-2.41,2.9-.24,4.52.1.08.19.34.14.41-1.23,1.57.22,3.2-.06,4.68-.43,2.2.17,4.36-.07,6.43-.57,4.72.47,9.42-.21,14.12-.14.92,0,2.71,2.18,1.93a7,7,0,0,1,5.29.21c2.67,1.2,5.53,0,8.22.86a12.16,12.16,0,0,0,1.47.43c1.51.25,2.68,2.36,4.73.24,1-1.07,3.32.6,5,1.09.7.21,1.18.74,2,.23.64-.4,1,0,1.34.65.47,1,1.37,2.42.5,3a4.41,4.41,0,0,1-4.15.07c-1.19-.58-2.5-.4-3.6-1.07-.17-.1-.57-.16-.65-.06-1.72,2-3.95.37-5.92.75a14.58,14.58,0,0,1-6.55-.61c-.29-.07-.7-.24-.86-.11-2.61,1.95-5.72.76-8.52,1.07-2,.22-4.44-.31-6.71-.24-.91,0-1.36-.71-1.64-1.59-.92-2.83-1.81-5.95-.72-8.59,1-2.45-.19-4.06-.57-6a2.23,2.23,0,0,1,.25-1.73c1.41-2.23.81-4.44.52-6.93a51,51,0,0,1-.58-6.55c0-2.05.11-4.11.17-6.17,0-1.11.38-1.63,1.58-1.71a4.78,4.78,0,0,0,2.89-.78c.63-.62,1.44-1.76,1-2.84-.41-.91-1.48-.26-2.23-.45-3.83-1-7.82,0-11.67-.88-1.71-.42-3.31.92-5.15.54-.67-.14-1,1.1-1,2,0,.47-.25.66-.7.67s-.65-.26-.66-.7c-.06-2.68-2.16-2.19-3.56-2-2.78.49-5.57.8-8.21-.14-2.86-1-5.36.51-8,.66a7.76,7.76,0,0,1-2.54-.07c-1.86-.45-4,0-5.65-.32-3.06-.56-6.09.55-9-.47-.38-.13-1-.3-1-.13-.72,1.8-2.57,1-3.76,1.71-.31.19-.9.35-.91.55-.16,2.44-2.5,4.19-2.09,6.82a30.73,30.73,0,0,1,.71,5.5c-.13,3.34.16,6.76-.53,10.09-.1.5-.62,1.17-.45,1.44,1.63,2.52-.73,5.31.6,7.88.37.72.09,1.78.06,2.69,0,.27-.37.71-.3.77,1,.82.22,2.11.53,2.72,1.42,2.79.63,5.37-.09,8a1.88,1.88,0,0,0,.08,1.33c1.56,2.37,1,4.64,0,7a2.67,2.67,0,0,0,.12,2.2,7.5,7.5,0,0,1,1.2,3.29,1.73,1.73,0,0,0,1.36,1.37c.68.17,1-.29,1.38-.88.77-1.31,1.86-2.21,3.55-1.82,1,.24,1.07-.66,1.38-1.16a17.33,17.33,0,0,1,1.62-2.23c1.18-1.38,2.51-.38,3.59-.81a16.44,16.44,0,0,1,7.54-.84c.29,0,.78,0,.86-.14,1.18-2.24,2.94-.69,4.48-.84,3-.29,6,.85,9-.17,1.93-.66,3.84.31,5.78.36a3.49,3.49,0,0,0,3.6-3,22.22,22.22,0,0,0-.33-8.07c-.2-1.08-1.21-1.13-2-.78-2.86,1.22-5.67,2.09-8.69.41-1.1-.62-1.12.91-1.87,1.24-1-1.69-2.73-1.6-4.22-1.24a25.56,25.56,0,0,1-6.76.45,65.48,65.48,0,0,0-7,.49c-1.48.12-2.86.54-4.37,0-.51-.18-1.29.2-1.88.46s-1.34,1.41-1.81.49c-.33-.64-1-1.65-.32-2.67a2.48,2.48,0,0,0,.2-2.49c-.59-1.58.82-2,2-2.29a7.29,7.29,0,0,1,2.61-.27c2.45.48,4.59-1,7-.69,4.26.6,8.52-1,12.8,0a4.47,4.47,0,0,0,4-1.55,6.49,6.49,0,0,0,1-4.59c-.23-1.87-1.1-3.57-.32-5.57a3.89,3.89,0,0,0-.54-3.24c-1.12-2-.24-3.87.05-5.91s1.76-4.55-.52-6.6c-.93-.84,0-4.06,1.13-3.92,2,.24,3.72-1,5.75-.22,2.26.83,3.47,2.18,2.77,4.4s0,4.61.07,6.89c0,.89-.42,1.59-.4,2.38.12,4.18-.17,8.41,1.14,12.48a1.69,1.69,0,0,1-.05,1c-.47,2.31.3,2.86,2.58,2.73a31.88,31.88,0,0,1,6.95.52c.77.13.83,1,.82,2.19a20.2,20.2,0,0,1-1.78,7.41c-.33.86.76,1.93,1,3.06a7.44,7.44,0,0,1-.2,4.11,11.71,11.71,0,0,1,2.15,0c1.52.28,3,.2,4.24,1.78,1.43,1.81,4.08.91,6.16,1.36,1.14.24,2.48-.37,2.94,1.45.17.65,1.13.42,1.83.26,2.2-.49,4.37-1,6.56.33a5.67,5.67,0,0,0,2.85.26,3.71,3.71,0,0,1,3.45,1.72c.92,1.4,2.29.37,3.37.46a15.29,15.29,0,0,1,5.52,1.54c2.65,1.31,4.83,5.08,4.23,7.89a4.5,4.5,0,0,0,.17,1.84c.06.5.48,1,.41,1.47-.65,4.79-.17,9.61-.51,14.4a3,3,0,0,1-1.94,2.35A16.51,16.51,0,0,1,187.65,196a1.35,1.35,0,0,0-.8.13,16.14,16.14,0,0,1-10.67.25,3.37,3.37,0,0,0-2.74.44c-.57-.94.26-2.39-1.07-2.67a5,5,0,0,0-4.6,1.06c-1.26,1.26-2.32,1.28-4.05,1.16a13.89,13.89,0,0,1-6.52-1.82,1.12,1.12,0,0,0-.9,0c-2.7,1.1-5.71.92-8.37,1.85s-5.38.15-7.88,1.3a1,1,0,0,1-1.17-.38c-1.2-1.38-2.75-1.21-4.27-.58a5,5,0,0,1-3.67.25c-2.13-.68-4.33.29-6.55.11-1.1-.1-2.08.21-3.06-.64-2.22-1.92-4.9-1.32-7.43-1-1.41.16-2.63-.75-4.13-.34-.49.13-1-1.76-1-2.9,0-2.28,0-4.57,0-6.85a3.24,3.24,0,0,0-2.41-3.47c-1-.32-1.5,0-2.26,1-1.94,2.63-.9,5.83-2.15,8.51a1.19,1.19,0,0,0,.38,1.45c2,1.5,1.63,3.54,1.47,5.66-.21,2.73,0,5.48-.08,8.22,0,.76.54,1.8-1,2.06-.64.11-.54,1.22,0,1.72,1,1,.57,2.07.72,3.18.36,2.63-.29,5.17-.23,7.77,0,1.35-1.09,2.72-.78,4.26.12.62-.49,1.49.81,1.73.85.16,0,.59-.16.86a3.06,3.06,0,0,0,0,3.46c.61,1.06,3.08,3-.06,4.42-.32.14-.34.82-.07,1,2.16,1.7.82,3.62.43,5.5a2.17,2.17,0,0,0,.41,2.33c.2.18.43.56.37.77-1.1,3.73.46,7.47-.05,11.22a9.94,9.94,0,0,0,0,4.34c.37,1.26-.21,2.78-.31,4.18a11.67,11.67,0,0,0,0,2.95c.22,1.11,1.34,2.19-.4,3.09-.2.1-.18.95.51,1.59s2.82,1.7.67,3.7c-1.22,1.14-1.67,3.19-1.65,5.44,0,4.42,2.23,8.58,1,13.19a7.33,7.33,0,0,0,.62,5.85c.4.58-.11,1.71.16,2.45.33.93-1.37,1.66.11,2.77,1.69,1.26,3.41,2,5.38,1.59a25.75,25.75,0,0,1,10,.28,26.44,26.44,0,0,0,9,0,4.93,4.93,0,0,1,4.53,1.08,1.72,1.72,0,0,0,2.52.16c1.62-1.2,4.78-1.38,6.3-.27s2.83,1.51,4.36.19a1.41,1.41,0,0,1,.75-.41c4.09.07,8.19,0,12.26.3a41.89,41.89,0,0,0,8.6-.05,42.43,42.43,0,0,1,10-.06,14.48,14.48,0,0,0,4.87-.06,20.84,20.84,0,0,1,3.88-.13c3.66-.1,7.32-.52,11-.06.9.12,1.28.72,1.83,1.2,1.67,1.45,2.76,1.39,4.12-.45a3.41,3.41,0,0,1,3.73-1.05c2.82.63,5.68.21,8.51.7,2.32.41,4.78,0,7.06,1,2,.84,3.81-.72,5.83-.28s4.34-.44,5,2.54c.31,1.34,1.49,1.49,2.72,1.43s1.22-1,1.34-1.73c.48-2.9,1.19-3.51,4.11-2.8,2.63.63,5.26,0,7.82.27,2.89.26,5.62-.48,8.46-.45a51.06,51.06,0,0,0,10.32-.6c1-.19,1.89-.58,2.83.43a1.2,1.2,0,0,0,2.12-.4c.07-.2.41-.65.35-.26-.25,1.68,2.1.95,2.11,2.52,0,.5,1.23.18,2-.13s1.55-.79,2.37-1.09c2.16-.8,4.17.27,6.12,0,3.13-.42,6.3.08,9.35-.57a8.77,8.77,0,0,1,3.25.07c4.25.63,4.23.76,6.48-2.72.24-.37.64-.82.59-1.17-.44-3,1.3-5.62,1-8.71-.22-2.22-1-4.66,0-7.05a4.72,4.72,0,0,0-.4-3.19c-1.27-2.45-.8-4.76-.31-7.17.25-1.24-.4-2.33-.61-3.5-.31-1.79-.58-3.4.56-5.13,1.37-2.07.09-4.4-.05-6.59-.17-2.65-1.85-4.59-3.8-6.29-.82-.72-1.47-.24-1.47.44,0,2.47-2.09,4.42-1.48,7.14.27,1.23,1.16,2.26.87,3.8a37.2,37.2,0,0,0-.3,10.64c.28,2.7-.89,4.55-2.28,6.49a1.9,1.9,0,0,1-2.62.6,3.17,3.17,0,0,1-1.55-2.55,15.24,15.24,0,0,0-.78-5.91,7.65,7.65,0,0,1,.4-5.46c1.14-2.28-.06-4.15-.17-6.18a8.76,8.76,0,0,1,0-2.29c.77-3.92.23-8,.88-11.94a6,6,0,0,0-.92-4c-.56-.81-1.14-2.1-2.45-.39-.85,1.11-2.26.84-3.4-.11-2.17-1.81-4.73-3.07-6.86-5a2.5,2.5,0,0,0-3,.1c-2.07,1.26-4.52,1.17-6.75,1.26-1.43.06-2.29.19-3,1.47a13.32,13.32,0,0,0,2.35,1.25,2,2,0,0,1,1.52,1.74c-.18,2,1.21,2.87,2.48,3.6a4.2,4.2,0,0,1,2,2.24,3.2,3.2,0,0,0,2.52,2.09,25.07,25.07,0,0,1,9,5.7c1.67,1.54-.61,2.84-.8,4.32-.12,1-1.36,1.13-2.39,1a6.76,6.76,0,0,1-5.13-3.82,3.63,3.63,0,0,0-2.31-1.9c-3.1-.38-4.17-3.06-6.15-4.72-1.19-1-1.65-2.64-3.23-3.28-.8-.33-1.77-1.46-2.32-.67-.65.94-1.55,2.16-1.19,3.48,1.08,3.93,0,8.09,1.31,12a1.13,1.13,0,0,1-.06.89c-.77,1-1.38,1.94-.17,3.14s2.78,2.2,4.59,1.64a3.77,3.77,0,0,1,2.91.42,17.2,17.2,0,0,0,8.72,1.89c1.32-.07,1.6,1.44,1.44,2.57-.13.85.47,2.54-1.73,1.8-1.88-.63-3.84.72-5.8.32-1.23-.25-3,.38-3.08-1.88,0-.35-.36-.42-.69-.39a1.09,1.09,0,0,0-1.08,1.21c0,.88-.13,1.35-1.14.73-1.26-.79-1.93.9-3.1.81-3.08-.23-6.21-.13-9.23-.66-1.84-.32-3.35.7-5.27.33a37.13,37.13,0,0,0-10.27-.18c-1.77.16-3.66.37-5-1.3-.27-.33-.64-.74-1.12-.27-2.51,2.42-5.49.75-8.25.93a5.31,5.31,0,0,1-1.06-.23c-.65-.11-1.25.88-2-.05a8.34,8.34,0,0,1-1.72-3.34c-.22-1,.89-1.56,1.91-1.62s2.28,0,3.42,0c1.5,0,3.3-.46,4.41-.21,2.35.53,4.51-.65,6.6-.16,3.42.8,6.56-.41,9.83-.69,2.3-.19,4.62-1.52,6.93-.07a.76.76,0,0,0,1-.08,5.83,5.83,0,0,0,2-7.86c-.73-1.29-.44-5.65.43-7a1.54,1.54,0,0,0,0-1.72c-.91-1.37-.38-3.09-1.12-4.51a1.48,1.48,0,0,1,0-1.33c2.36-2.65.59-6.09,1.78-8.94,1-2.51-.64-4.7-.91-7.06-.05-.43-.52-.92-.41-1.23.43-1.19.82-2.63-.32-3.26-1.51-.83-3.63-1.86-5-1.39-3,1.07-5.95.28-8.81.13-2.63-.13-5.3.74-7.92-.25-.6-.23-1.32-.14-1.78-.75-.81-1.07-1.64-2.43-1.88.31-.06.59-.73.35-1.14.38-2.1.19-4.19-.14-6.31.22a1.76,1.76,0,0,1-2.11-2.19,7.18,7.18,0,0,0-.44-4c-.49-1-.27-1.27.91-1a3.58,3.58,0,0,0,2.63-.31c2.36-1.26,4.92-.18,7.35-.19a55,55,0,0,1,6.79,0c.84.1,1.53-.4,2.47.43.58.52,2,.3,3.07,0a5.77,5.77,0,0,1,4.15.12c1.95.82,4,.23,5.94-.09a2.25,2.25,0,0,0,1.24-2.92c-.75-1.83-.1-3.67-.1-5.42,0-4-.82-5.83-4.76-5.56-2.71.19-5.46.16-8.11.5-2.27.3-4.55.52-6.83.74a4.6,4.6,0,0,1-3.25-.64c-.55-.4-1.37-.5-1.69-.12-1.51,1.85-3.25.36-4.85.55s-3.39-.88-5,.43a1.7,1.7,0,0,1-2.13,0c-1.28-1.43-2.82-.37-4.18-.58a1.36,1.36,0,0,0-1.23,2.09c1.33,2.26,1.66,4.33-.32,6.4a3.7,3.7,0,0,0-.6,3.13c.6,1.75-.57,3.56.64,5.28,1.11,1.56.89,3.68,1.37,5.53.3,1.19-1.18.93-1.3,1.81a25.31,25.31,0,0,0,.55,8.55c.17.77,1.25,1,2.1.88a5.93,5.93,0,0,0,3.58-1.53c1.58-1.8,3.4-2.3,5.68-2.79a51.68,51.68,0,0,1,5.49-.75c2.44-.24,4.82.3,7.26.23,2.29-.07,4.67.25,7,.28a15.63,15.63,0,0,1,3.37.9c4.27,1,2.28,4.67,2.68,6.88.73,4,.27,8.27.65,12.42.17,2-.77,3.89-.08,6,.31.94-1.08,1.53-2,1.67a81.21,81.21,0,0,1-10.6,1.32,13.88,13.88,0,0,1-7.21-1.64,3.64,3.64,0,0,0-3.44-.31c-1.48.67-2.41-.19-3.17-1.17s-1.52-1.87-.37-3.09c.85-.9-.22-1.63-.45-2.39s-.9-.39-1.55-.2c-2.1.6-4.15.85-5.8-1.22-.57-.73-2-1.43-2.53-.64s-1.84,1.34-1.48,3.16a18.83,18.83,0,0,1,.45,7.3c-.43,2.21,1,4.62.76,7.06-.09.88.16,1.82-.77,2.45-.34.23-.64.5-.2,1.07,1.42,1.79.62,3.36-.89,4.5-.95.71-1.16,1-.09,1.66,1.3.79,2.35,1.63,2.48,3.45a1.54,1.54,0,0,0,2.46.93c2.17-1.76,4.68-.47,7-1,1.1-.26,2.64.09,3.85-.23,1.64-.42,3.05-.6,4.36.66.18.17.62.33.79.23,2.52-1.51,5.25-.78,7.92-.83,2.27,0,4.52-.41,6.82-.07.56.08.86,0,1.26.53,1.23,1.67,2.87.22,4.2.16,2.35-.11,4.93-1,7.05-.43,2.85.72,5.6.44,8.39.66.53,0,1.06.06,1.59.07,1.73,0,2.63.82,2.29,2.62a1.91,1.91,0,0,0,.88,2.15c.63.41,1.58.54,1.3-.55s1.85-1.8.61-3.08c.54-.22,1.13-.71,1.62-.63,3.42.54,6.87,1,10.07,2.4.38.17.63.64.9.93-1.22,1.09-2.49,1.68-4.06.78-.27-.16-1-.08-1.07.09-.72,1.55-2.25,1.34-3.44,1.4-2.36.13-4.73,1-7.12,0a3.06,3.06,0,0,0-2.21,0,2.06,2.06,0,0,1-2.64-.41c-.25-.25-.76-.59-1-.49-2,1-4.14.23-6.15.54a55.75,55.75,0,0,1-7,.61,8.51,8.51,0,0,1-5.64-1.41,1,1,0,0,0-1.4,0,3.27,3.27,0,0,1-2.95.19,2.66,2.66,0,0,0-3,.61,3.43,3.43,0,0,1-3,.58c-3.63-1.09-7.25.27-10.92-.11-2.11-.22-4.65-.69-6.93.16-1,.36-1.68-.4-2.15-.93-1.37-1.55-3.35-2-5-3.11-.38-.26-.87-.73-1.44-.48-2.45,1.07-2.11-1.61-3.2-2.36,1.45-1.56-.26-3.35.37-5a2.91,2.91,0,0,0-.27-2.4c-.9-1.62-2.09-3.32.14-5a1.27,1.27,0,0,0-.49-2.25c-1.06-.41-1.34-1.39-1.22-2.72a32.15,32.15,0,0,0-.46-5.58c-.26-2.82,0-5.69-.78-8.46,0-.06,0-.14.05-.21,1-3.6,1-4.18.51-8.1a2.34,2.34,0,0,1,.94-2.13c1.44-1.29.61-2.53-.47-3.09-.81-.44-.68-.66-.65-1.33a23.33,23.33,0,0,0-1.11-8.38,2,2,0,0,1,.13-1.67c.59-1.31,1.34-2.61.6-4.19a1.49,1.49,0,0,1,.34-1.69c.8-.76.59-1.5.07-2.42a4.31,4.31,0,0,1,0-4.46,2,2,0,0,0,.19-2.09,7,7,0,0,1,1.17-7.75c.21-.22.49-.38.42-.67-.51-2.21,1.15-2.51,2.59-3.13A27.35,27.35,0,0,1,226.29,204c2.69.33,5.54-.29,8.15.29,3.06.68,5.63-.84,8.46-1a2.47,2.47,0,0,1,1.54.15c1.2.79,2.23,1.23,2.8-.73.27-.91.87-.08,1.26.08.7.27,1.39.72,2.12.32.56-.3,1.52-.38,1.5-1.16a1.42,1.42,0,0,0-1-1.53c-.2,0-.33-.34-.53-.41-2.28-.81-2.59-2-2.2-4.56.51-3.36.12-6.89.61-10.33.19-1.32-2.36-3-3.81-2.3-1.91.94-3.42,1.4-4.8-.72-.41-.63-1.19-.38-1.87-.13-1.38.51-2.79.93-4.17,1.45-.38.15-.89.3-1.05.06-1.69-2.56-4.2-1.21-6.3-1.15a2.67,2.67,0,0,1-2.25-.86c-1.69-1.63-2.75-1.59-4,.22-.84,1.2-1.73,1.75-3,.55a1.48,1.48,0,0,0-1.15-.34c-2.07-.07-4.12-.44-6.19-.57-.9-.05-1-.37-1.17-1.19-.59-2.8-.35-5.62-.5-8.43-.18-3.25-1.15-6.46-1.24-9.7-.06-2.28.32-4.68-.15-6.87-.65-3.11.66-5.67,1.37-8.44.33-1.27.43-2.68-.94-3.71a3.64,3.64,0,0,1-1.16-4.71c.67-1.44-.55-2.55-.19-4a32,32,0,0,0,.85-4.34c.24-2.27,1.59-2.72,3.4-2.55,3,.29,6.1-.75,9.08.42,2-1.85,4.17.68,6.4-.33,1.9-.85,4.16.81,6.23.28a7,7,0,0,1,4.14,0,6.08,6.08,0,0,1,1.42.56c.91.59,1.79.88,2.62-.41a1.38,1.38,0,0,1,2.46.11c1.11,1.89,2.07.92,2.74-.14s1.37-2.14,3-2c.89.09,2.14-2.8,1.85-4-.49-2-2-3.9-.75-6.15.09-.17-.12-.56-.26-.81-1.36-2.32-.33-4.18,2.53-4.52a20.5,20.5,0,0,0,2.24-.19c1.79-.41,3.72,1.52,3.53,3.4-.31,2.92-1.39,5.86.07,8.77.37.73-.53,1.24-.2,2.11.88,2.31,2.94,2.51,4.79,2.75,2.36.3,4.82-.22,7,1,1,.54,1.56-.64,2.62-.61,1.61,0,2.94,1.8,4.67.7.08,0,.74.42.76.67.11,2.68,1.59,1.31,2.72.94s1.83-2,3.21-.4c.41.47,1-.32,1.52-.6,1.3-.7,2.46-1.68,4.23-.49a4.39,4.39,0,0,0,3.82.42c2.2-.76,4.29.76,6.41,1.29,1.3.33,1.24,1.86.84,3.07-.61,1.88-1.28,3.76-1.93,5.63-.17.51-.44,1.07.36,1.25,1.76.41,1.74,1.78,1.77,3.16.05,1.7-1.57,3.4,0,5.11a.43.43,0,0,1,0,.44c-2.18,1.8-2.36,3.56,0,5.44.26.22.21,1.08,0,1.55-1.21,3.36-.38,6.88-.64,10.3a31,31,0,0,0-.2,6.61c.29,2-.82,3.84-.25,6,.29,1.1-.66,2.59-3,2.3-2-.23-4.16.28-6.28.31-1.47,0-3.42-1.28-4.31,1.12-1.6-.44-3.34-.67-4.67-1.68s-3.15-.51-4.58-1.27a1.06,1.06,0,0,0-.92.46c-.55,2.42-2.38,1-3.64,1.21-.39.06-1-.46-1.22-.3-2.92,2.34-6.56.26-9.62,1.61a1.32,1.32,0,0,1-.87.15c-2.93-1.07-3.63,1.86-5.25,3a1.59,1.59,0,0,0,.65,2.46c.9.44,1.87.87.64,2a1.09,1.09,0,0,0-.06,1.08c1.66,2.33.35,4.79.37,7.18,0,1.43-1.33,1.8-2.35,2.32-.61.31-1.29.49-1.27,1.38s.94.65,1.38.8c2.52.88,5.19.48,7.8.67,1.77.12,3.57-1,5.34.39.51.42,1.55.1,2.39-.07a19.27,19.27,0,0,1,7.22,0,4.44,4.44,0,0,0,2,.19c3.94-1.31,7.7.31,11.54.58s4.39,3.51,5.7,6a10,10,0,0,1,.64,4.11c.1,1.82.15,3.77,2.1,5.31,1.27,1,1,3.56.84,5.32-.15,2.38-.81,4.64.05,7.08.43,1.24.58,2.67,1.89,3a2.91,2.91,0,0,0,3.75-1.57c.09-.19.33-.31.5-.46,1.21,2,1.11,1.88-.19,3.56-.87,1.12-.38,2.19.65,3.21,1.34,1.32,2.94,2.28,4,4.07,1.21,2.15.55,4.13.34,6.17-.05.54-.55,1.34-.21,1.68,1.69,1.7,1.12,4.31,2.55,6.12a1.33,1.33,0,0,1-.45,1.82,12.55,12.55,0,0,1-1.3.84c-.73.39-1.75.74-1.71,1.59.05,1.09,1.24,1.62,2.11,1.74,1.59.23,1.45,1.22,1.45,2.3,0,7.31.34,14.64-.17,21.92-.2,2.93.35,5.72.2,8.59-.15,3,0,6.09,0,9.13a20.88,20.88,0,0,1-.85,5.49c-.34,1.28-.5,2.07-2.34,1.72-1.16-.23-2.84.76-3.81,1.45-1.75,1.24-3.57,1.13-5.34,1.29-3.33.28-6.68.2-10,.31-1.3,0-2.34-.12-2.79-1.63a.89.89,0,0,0-1.73-.17c-.65,1.41-2,1.18-3,1.66-.87.42-1.44,0-1.93-.85-1.49-2.78-2.38-2.9-4.56-.77-.27.26-.56.51-.92.83-.94-1.86-2-1.79-3.22-.34s-2.45,1.83-4,.44a1.54,1.54,0,0,0-2.53.19c-.5.74-1.3.68-2.05.62-3.09-.22-6.33.74-9.18-1.3-.44-.32-.93.24-1.4.46-3.39,1.55-6.77,2.21-9.94-.52-.67-.57-1.25-.89-1.69.26s-1.6,1.45-2.86,1.62c-1.58.22-3-1.11-4.59-.25-.08.05-.47-.21-.51-.38-.49-2.11-2.09-2.52-3.93-3.05-2.15-.62-2.88-.65-4.67.81-1.64,1.35-3.24,0-4.79-.41-.88-.25-1.56-.91-2.63-.36-.89.45-.7-.7-1.05-1.07-.61-.64-1-1.76-2-1.61s-.69,1.31-.77,2.1c-.33,3.08-1.26,3.7-4.35,4.22-3.7.64-7.4.19-11.09.42-1.36.08-2.3-.24-2.81-1.62-.58-1.59-1.32-1.63-2.35-.22A3.25,3.25,0,0,1,191,317c-3.09-.08-6.25.59-9.22-.48a6.67,6.67,0,0,0-4.12.21c-3.67,1-7.28-.69-10.92.22a6.41,6.41,0,0,1-4.24-.22,1.68,1.68,0,0,0-1.1-.12c-6.7,1.9-13.55.58-20.33.76-1.7,0-3.95.37-5.41-1.45a1.3,1.3,0,0,0-1.7-.08c-3,2.09-6.22,1.22-9.42.87a5.36,5.36,0,0,0-2.24-.09c-2.35.87-4.62-.39-6.8-.18-2.59.25-5.07-.08-7.6-.07-1.48,0-2.89.33-4.4-.15-2.73-.86-4.57-3.55-3.76-6.24a1.89,1.89,0,0,0-.42-2.16c-1.82-2-1.47-4.78-1.72-7.15s.61-5.14-.61-7.68a4.46,4.46,0,0,1-.11-2.69c.83-3.84.42-7.71.38-11.56-.06-5,.56-10-.37-15a12.6,12.6,0,0,1,.54-5.33c1.05-4-.13-7.7-.17-11.54,0-2.32-.23-4.73.7-7a3.76,3.76,0,0,0,.24-1.76c-.11-2.47-.27-4.94-.42-7.41,0-.49,0-1,.47-1.2,2.23-1.05.86-2-.13-2.81a2.54,2.54,0,0,1-.79-2.67c.48-3.07,1.23-6.15.28-9.23-.25-.8.57-.5.57-.9,0-.86.78-1.62-.25-2.61a1.94,1.94,0,0,1,.31-3.33c1-.67,1.53-1.54.15-2.68A3.52,3.52,0,0,1,97.31,202c.36-2.86.37-5.76,2.3-8.21.88-1.11,1.32-2.26,0-3.75-1-1.18-.33-3,.53-4.14,1.48-1.87,2.06-4.22.07-5.38-2.65-1.55-1.25-3.18-.5-4.33,1.23-1.91.75-2.5-1.1-3.24-.78-.31-2.34-.95-1.35-2.48,1.55-2.38.54-4.1-1.33-5.64v-1.37c1.38-1.56,1.28-3.06.78-5.15-.84-3.57-.1-7.39-.25-11.08-.17-4.49,1.1-9-.53-13.47Zm27.4,36.23c-4.6,1.06-6.24,2.4-5.94,7.95.07,1.29.38,2.77-.11,3.84-.83,1.78.17,3.45-.16,5.18a2.49,2.49,0,0,0,1.4,2.37c3,.81,6,2,9.24.57a8.78,8.78,0,0,1,5.23-.81c2.58.49,5.24.49,7.75,1a19.19,19.19,0,0,0,8.4,0c3.46-.77,7.24,0,10.86-.24a10.61,10.61,0,0,1,6.63,1.6,3.64,3.64,0,0,0,4.5-.24c1.76-1.21,2.79-1,3.93.8a5.9,5.9,0,0,1,.74,1.37c.17.59.52.68,1,.61s.49-.54.43-.88c-.25-1.55.87-1.93,2-2.26,2.29-.7,4.68-1.78,6.16,1.39.29.63,1.08,1.38,1.84.64,1.6-1.58,1.53-1.54,3.67-1.21,1.63.26,3.36.52,3.49-2.1.16-3.21-.55-6.44.23-9.64a.69.69,0,0,0-.28-.57c-1.41-.87-.69-2.22-.52-3.21.59-3.47.35-4-3.13-4a3.49,3.49,0,0,1-3.28-2.32c-1-2.21-1.42-2.4-3.16-.76-2.47,2.32-2.59,2.28-4.71-.75-.55-.78-1.26-1.58-1.79,0-.11.33-.26.55-.59.52-2.77-.2-5.62.62-8.31-.43a8.86,8.86,0,0,0-4.22-.41c-1.91.18-3.78-.28-5.65-.23-2.1.07-3.78-1.8-6-.93-4.36,1.7-8.9,1-13.39.73a10.35,10.35,0,0,0-3.58.2c-2.11.64-4.4.5-6.54,1.09C127.46,168.72,125.32,168.65,123.36,169.11Zm167.25,5.09a6.67,6.67,0,0,0,1.81-4.14c0-2.05-.34-4.3.15-6.12,1.19-4.37-.76-8.61.08-12.85.34-1.71,0-3.86,2.64-4.47,2.43-.57.84-2,0-2.32-1.53-.55-1.58-1.5-1.45-2.72.07-.7-.41-1.32-.41-1.93,0-3.65-1.78-5.18-5.41-5.54-1.75-.18-3.19-.57-4.6.7-.48.43-1.24.68-1.4-.12-.26-1.34-.78-1.93-2.21-1.85-1.16.07-2.31.06-3.11,1-1,1.14-2,1.22-2.72-.08-.95-1.77-1.67-.66-2.32.08-1.18,1.36-2,1.74-2.52-.46a1.19,1.19,0,0,0-1.34-1,1.27,1.27,0,0,0-1.37.93c-.21.65.58,1.79-.94,1.83-1.13,0-2,0-2.51-1.33a1.53,1.53,0,0,0-1.88-.94c-.85.23-1,1-1.06,1.73a2.5,2.5,0,0,1-1.77,2.63c-1.45.64-2.72,1.87-1.26,3.84a3.44,3.44,0,0,1,.66,2.29,56.4,56.4,0,0,0-.25,7.34c-.06,2,0,4.57-3,5.06a1,1,0,0,0-.68,1.43c.82,1.05.92,2.58,2.19,3.3,1.49.84,1.71,2,1.1,3.54a12.91,12.91,0,0,0-.2,2c-.43,2,1.12,3.84.79,5.66-.29,1.64.32,2,1.49,2.25a30.6,30.6,0,0,0,7.17.56c4.7-.13,9.46-.48,14.13.75a4.43,4.43,0,0,0,3.45-.52c1.57-.92,3.5-.29,5.24.16A1.56,1.56,0,0,0,290.61,174.2Zm-76-37.67c-1,.78.29,1.7.49,2.58.05.23-.16.53-.27.79-1.29,3-.53,6.22-.35,9.21a67.18,67.18,0,0,0,.64,8.33c.11.6.65,1.09.36,1.88-1.34,3.65-.17,7.46-.61,11.21-.34,2.82.78,3.37,3.85,3.49,2.27.09,4.5-1.09,6.72-.35,2.64.89,5.45-.67,8,.72.31.16,1.05-.23,1.43-.45,2.08-1.19,3.9-.52,5.65.61a1.74,1.74,0,0,0,1.71.28,12.24,12.24,0,0,1,4.26-1.16c1.95-.37,2.64-.93,1.46-2.74-.18-.27-.33-.45.12-.61,1.2-.41.83-1.45.88-2.31.17-3.18-.45-6.32-.58-9.48-.09-2.05,1.15-4.18-.29-6.24a1.85,1.85,0,0,1,.57-2.25c1.15-.77.66-1.6.55-2.53-.19-1.67-1.23-3.3-.47-5a4.53,4.53,0,0,0-1.73-5.77,2.53,2.53,0,0,1-1.47-1.55c-.28-1.11-.92-1-1.61-.46-1.66,1.31-3.41.83-5.29.61-1.32-.16-2.48-1.47-3.52-1-2.37,1.11-5,.54-7.09.35-3.07-.27-6.1,2.13-9-.28A25.19,25.19,0,0,0,214.64,136.53Zm51.24,87.53a14.45,14.45,0,0,1,7.3,0c1.49.37,4.44-1.59,3.84-2.91-.73-1.59-.15-3.11-.48-4.66-.57-2.62.9-4.3,3-4.09,1.14.12,3.32,3.15,2.83,4.3-.71,1.66-.13,3.22,0,4.77.19,1.77.57,3.79,3.12,3.71a6.65,6.65,0,0,1,6,2.86c.42.58,1,.36,1.43.29s1-.57.75-.93c-.57-.84.08-1.59,0-2.3-.69-4.55-1-9,2.23-12.86.32-.38.37-.94-.38-1.25a3.16,3.16,0,0,1-1.35-1.44c-.75-1.21-5.57-2.39-6.6-1.51-1.25,1.07-2.65,1-4.06,1.21-1.63.28-3.09-.5-4.83-.22a43.9,43.9,0,0,1-8.77.81c-1.72-.08-4.25-.5-5.34,2.21-.64,1.61-.42,3.55-1.81,4.88,0,0,.11.45.26.56,1.48,1.06,0,2.77.91,3.67C263.78,223.33,264.62,224.41,265.88,224.06ZM246.4,245.29c-1.61.15-3.07-.61-4.83-.2-1.54.35-3.36-.53-5,.6a1.09,1.09,0,0,1-1.08-.1c-1.2-1.35-2.74-.94-4.12-.74-2.46.36-5.06.57-6.25,3.43-.28.69-.63,1.48-.16,1.86,1.77,1.43,1.06,3.33,1.16,5.06s2.2,4.83,3.56,5.83,2.71.09,4,.2c2.21.19,4.4.66,6.61.89a5.49,5.49,0,0,0,3.08-.33c1.2-.57,1.82-2.7,3.74-1.49.05,0,.42-.26.41-.39-.07-1.14.91-2.17.46-3.3-1.26-3.2-1.22-6.5-.9-10.05C247,246.23,247.61,245.18,246.4,245.29ZM266.28,236c.27,2.3,1.9,2.33,3.25,1.85,3.44-1.22,7-.92,10.44-.77,1.73.07,3.78.26,5.08,1.21,2.31,1.71,5.35,2.1,7.31,4.33.43.48,1.42.56,1.33-.14-.19-1.55.89-2.9.41-4.43a14,14,0,0,1-.75-5.74c.19-1.77-.6-2.33-2.25-2.15-3.84.42-7.7,0-11.55.39-2,.19-4-.48-6.06-.41a13.07,13.07,0,0,1-4-.35,4,4,0,0,0-4.93,3.64C263.62,235.18,266.17,235,266.28,236ZM106.82,170.51c-1.18-.73-1.68.31-2.26,1a1.52,1.52,0,0,1-1.15.64c-.7,0-1,.52-1.07,1.21s.36,1.07,1,1.28c.81.29,1.29,1,1.95,1.46s1.29,2.08,2,1.24c.94-1.17,2.45-1.87,2.92-2.94C110.07,171.82,108.21,171.36,106.82,170.51Z" transform="translate(-95.96 -99.07)"/><path class="cls-1" d="M153.08,284.67c-.45,2.46.72,5.47-.45,8.38-.37.93-.86,1.6-1.93,1.55-2.57-.11-5,.94-7.68.64a10.3,10.3,0,0,1-4.67-1.95c-.77-.49-1-.59-1.45.27-.68,1.18-1.67,1.54-2.69.23a2.11,2.11,0,0,0-2.52-.48c-2.41.9-4.6,1.81-7.41,1.14-3.18-.76-6.53.11-9.82.16-2.36,0-4.32-.58-5.35-3a8.22,8.22,0,0,1-.65-4.31c.6-3.13-.24-6.21.23-9.31a30.48,30.48,0,0,1,.68-3.72,2.45,2.45,0,0,1,3.43-1.87c2.36.75,4.8,0,7.2.14,2,.08,4-.73,6.11-.36.93.17,1.58-.22,1.47-1.55-.36-4.33-1.59-5.29-5.92-4.36-2.37.51-4.65-.23-6.93-.67-1.16-.22-1.62-1.05-1.51-2.46a14.23,14.23,0,0,0-.54-5.32,14.83,14.83,0,0,1-.31-8.37,1.46,1.46,0,0,0-.05-1.1c-2.1-2.5-1.15-4.93,0-7.41.41-.89-.36-1.38-.92-1.88-1.08-1-1.37-3.41-.44-4.43a1.58,1.58,0,0,0,.27-1.79,4,4,0,0,1,3.57-5.31c2-.16,2.36,1.93,2,2.93-.63,2,0,3.8.26,5.52.62,4.32-.21,8.61.15,12.92.16,1.82,0,3.79.14,5.7a2.44,2.44,0,0,1-.67,2.39c-1,.94,1.26,3.78,3,3.82,2.49.06,5-.39,7.45.37.14,0,.37.1.43,0,1.29-1.41.71-3.15.74-4.76,0-1.18-1-1.09-1.82-1.14-.56,0-1,.34-1.67.09-2.9-1-3.41-1.49-2.18-4.47,1-2.46.09-4.66.09-7,0-2.87-1-5.47-1.66-8.17a5.51,5.51,0,0,1,.62-4.35c1.71-2.21.39-4.44.7-6.61.16-1.07-.71-1.46-1.5-2-2.61-1.7-5.64-1.16-8.45-1.69-1.22-.23-2.33-.68-2.12-1.67.27-1.26,1-3.26,2.42-3.12,4.25.39,8.5-.22,12.71.21a26,26,0,0,0,9.11-.22,2.27,2.27,0,0,1,1.62.24c1.57.81,3.07.19,4.6.23,3.35.1,7-.05,9.78,2.49.36.32,1,.68.39,1.28-.39.4-.67,1.12-1.45.83-2.52-.94-4.39,1.24-6.69,1.37-.86,0-.92.83-.71,1.35.5,1.19-.13,2.48.11,3.41a13.36,13.36,0,0,1-.27,6.09c-.62,3.12.78,6.2-.26,9.29-.51,1.5.82,2.86.71,4.59a50.42,50.42,0,0,1-.79,8.13,1.27,1.27,0,0,1-1.48,1.06c-1.07,0-2.13,0-3.2,0-.89,0-1.63-.15-1.94,1.2a2.11,2.11,0,0,0,.72,2.38c2.16,2.26,4.86,1.66,7.35,1.53,2.14-.11,3.11-1.95,3.08-4,0-2.9-.42-5.74-.08-8.71.43-3.64.47-7.33.85-11,.23-2.15-.26-4.56-.27-6.87,0-1.52-.14-3.19,2-3.34a3.15,3.15,0,0,1,3.42,3.43c-.17,3.21.61,6.63-1.63,9.51a.88.88,0,0,0,.14,1.24c2,1.63,1.42,4,.92,5.71-.83,2.75-.17,5.19,0,7.81a56.29,56.29,0,0,1-.4,9.7,2.53,2.53,0,0,1-2.84,2.31c-3.46-.17-6.92.4-10.39-.35a2.41,2.41,0,0,0-3.1,2.16c-.11,1.3-.18,2.2,1.81,3.14,4,1.85,7.81.7,11.68,1,1.2.09,2.29.74,3.55.53.81-.14.64.58.74,1.08C153.22,278.15,153.05,281.18,153.08,284.67Zm-8.76-5.77c-.21,0-.48.15-.61.06-2.2-1.49-4.63.38-7.08-.57-1.26-.5-3.47-.1-5.25,0a49.86,49.86,0,0,1-14.52-.66,1.46,1.46,0,0,0-1.64,1.9c.9,2.26.38,4.51.35,6.75,0,1.21.66,1.77,1.55,1.73,2.43-.09,4.86.79,7.18.39,1.92-.32,3.6-.72,5.19.6,1.26,1.05,2.07-.25,3.06-.49,2.75-.65,5.58.38,8.32-.41a1.31,1.31,0,0,1,1,.4c1.61,1.54,3.09-.53,4.67-.16.35.08.67-.59.59-1.09-.3-1.91.62-3.71.47-5.6C147.7,278.61,147.55,278.47,144.32,278.9Zm-16.4-54.26c0,.46,0,.84-.57,1a1.09,1.09,0,0,0-.74,1.47c.63,1.28.16,2.69.65,4,1.45,3.76-.78,7.72.64,11.48,0,.14-.29.39-.27.58.17,2-1,3.95-.19,5.88.49,1.23,5,2.57,6.72,2,.68-.22,1.39-.06,2-.33.94-.44,2.33-1.37,1.74-2.23-1-1.36-.28-2.51-.4-3.75-.36-3.66-.79-7.22-.07-11a26.81,26.81,0,0,0,.31-8.23,3.55,3.55,0,0,0-2.76-3.43,21,21,0,0,0-4-.58C127.85,221.5,127.66,221.71,127.92,224.64Z" transform="translate(-95.96 -99.07)"/><path class="cls-1" d="M161.3,269.86c-1.22.19-2-.05-2.87.33s-1.56.59-2.16-.3a2,2,0,0,1,0-2.5c.9-1.18.82-2.19.3-3.78-.6-1.82-1.09-4.3.6-6.23.23-.27.51-.79.41-1a2.38,2.38,0,0,1,1-3.47c2-1.09,4.16-2.38,6.5-1.57a6.13,6.13,0,0,0,4.1.07c1.93-.52,4.29.09,6.34.65a3.91,3.91,0,0,0,2,.1c2.94-.6,6,.14,8.82-.25,4-.56,7.79,1.31,11.68.2,1.51-.43,2.46,1.35,4,1.22.11,0,.44.59.36.76-1.18,2.45.45,4.63.63,6.95.26,3.49-.87,6.83-1,10.28,0,.85-.82,1-1.74.73a12.76,12.76,0,0,0-6.49.19c-2.39.64-2,2.83-2.12,4.39a82.81,82.81,0,0,0,0,9.84,2.11,2.11,0,0,0,2.2,2.27c2.87.25,5.72.83,8.56,1.33.9.16,1.61.51,1.58,1.74s-.36,2.11-1.41,2.28c-2,.34-4.11,1.1-6.12,0a1.69,1.69,0,0,0-1.88,0,1.65,1.65,0,0,1-1.32.1c-3.19-1.44-6.1,0-9.08.8-.13,0-.36.14-.4.09-2.63-3-5.82.08-8.71-.77a8.15,8.15,0,0,0-4.68.29,2.62,2.62,0,0,1-2.79-.4c-.61-.61-1.28-.37-2.06-.22a13.35,13.35,0,0,1-9.32-1.21c-1.2-.67-.82-2.22.48-3.26,1.65-1.31,3.63-.52,5.41-1.14,1.56-.54,2.86-1.92,4.79-1.54.72.14.58-.84.45-1.24-1-3.1.35-6.1.34-9.16,0-1.17.13-2.39.14-3.59,0-2.21-2.24-1.45-3.33-2.25A4,4,0,0,0,161.3,269.86Zm35.18-9.16c0-4,0-4-4.08-4-2.94,0-5.83.63-8.79.52-1.84-.06-3.62-.51-5.54-.41a36.6,36.6,0,0,1-6.53.14,58.17,58.17,0,0,0-7.22-.18c-.91,0-1.89.25-1.83,1.95s.66,3.47,0,5.2.1,2.53,1.87,2.38c4.26-.36,8.44,1.06,12.7.46,2.28-.33,4.48.47,6.73.46,3,0,5.91-.07,8.87,0a3.49,3.49,0,0,0,3.79-3.73V260.7Zm-11.94,26.72a61.79,61.79,0,0,1,.11-6.81c.08-2.28-.61-4.47-.53-6.74.06-1.67-3.14-3.63-4.55-2.7a3,3,0,0,1-2.92.29c-1.43-.49-3.27.33-3.29,1.32,0,1.65-.51,3.38-.11,5a21.44,21.44,0,0,1,.14,8.06c-.1.79.07,1.23.51,1.47,2.19,1.16,4.1,3.46,7,1.83.33-.19.77-.55,1.16-.09C183.55,289.42,184.66,289,184.54,287.42Z" transform="translate(-95.96 -99.07)"/></svg>